<svg width="36" height="37" viewBox="0 0 36 37" fill="none" xmlns="http://www.w3.org/2000/svg">
<g opacity="0.3">
<rect x="0.999954" y="1.25925" width="34" height="34" rx="17" stroke="white" stroke-width="2"/>
<path d="M27.3333 16.9259H14L18.3866 12.5392C18.5116 12.4153 18.6108 12.2678 18.6785 12.1053C18.7462 11.9429 18.781 11.7686 18.781 11.5926C18.781 11.4166 18.7462 11.2423 18.6785 11.0798C18.6108 10.9173 18.5116 10.7699 18.3866 10.6459C18.1368 10.3976 17.7989 10.2582 17.4466 10.2582C17.0944 10.2582 16.7564 10.3976 16.5066 10.6459L10.7866 16.3792C10.2858 16.877 10.0029 17.5531 9.99995 18.2592C10.0064 18.9607 10.2891 19.6314 10.7866 20.1259L16.5066 25.8592C16.6309 25.9827 16.7784 26.0804 16.9404 26.1469C17.1025 26.2133 17.2761 26.2472 17.4513 26.2466C17.6265 26.246 17.7999 26.2109 17.9615 26.1433C18.1231 26.0757 18.2698 25.9769 18.3933 25.8525C18.5167 25.7282 18.6145 25.5808 18.6809 25.4187C18.7474 25.2566 18.7813 25.083 18.7807 24.9078C18.7801 24.7326 18.745 24.5593 18.6773 24.3977C18.6097 24.236 18.5109 24.0893 18.3866 23.9659L14 19.5926H27.3333C27.6869 19.5926 28.026 19.4521 28.2761 19.202C28.5261 18.952 28.6666 18.6128 28.6666 18.2592C28.6666 17.9056 28.5261 17.5665 28.2761 17.3164C28.026 17.0664 27.6869 16.9259 27.3333 16.9259Z" fill="white"/>
</g>
</svg>
