<svg width="36" height="37" viewBox="0 0 36 37" fill="none" xmlns="http://www.w3.org/2000/svg">
<rect x="35" y="35.2592" width="34" height="34" rx="17" transform="rotate(-180 35 35.2592)" stroke="white" stroke-width="2"/>
<path d="M8.66662 19.5926L22 19.5926L17.6133 23.9793C17.4883 24.1032 17.3891 24.2507 17.3214 24.4132C17.2537 24.5756 17.2189 24.7499 17.2189 24.9259C17.2189 25.1019 17.2537 25.2762 17.3214 25.4387C17.3891 25.6012 17.4883 25.7486 17.6133 25.8726C17.8631 26.1209 18.201 26.2603 18.5533 26.2603C18.9055 26.2603 19.2435 26.1209 19.4933 25.8726L25.2133 20.1393C25.7141 19.6415 25.997 18.9654 26 18.2593C25.9935 17.5578 25.7108 16.8871 25.2133 16.3926L19.4933 10.6593C19.369 10.5358 19.2216 10.4381 19.0595 10.3716C18.8974 10.3051 18.7238 10.2712 18.5486 10.2719C18.3734 10.2725 18.2 10.3076 18.0384 10.3752C17.8768 10.4428 17.7301 10.5416 17.6066 10.6659C17.4832 10.7903 17.3854 10.9377 17.319 11.0998C17.2525 11.2619 17.2186 11.4355 17.2192 11.6107C17.2198 11.7859 17.255 11.9592 17.3226 12.1208C17.3902 12.2824 17.489 12.4292 17.6133 12.5526L22 16.9259L8.66662 16.9259C8.313 16.9259 7.97386 17.0664 7.72381 17.3165C7.47376 17.5665 7.33329 17.9056 7.33329 18.2593C7.33329 18.6129 7.47376 18.952 7.72381 19.2021C7.97386 19.4521 8.313 19.5926 8.66662 19.5926Z" fill="white"/>
</svg>
