<svg width="25" height="23" viewBox="0 0 25 23" fill="none" xmlns="http://www.w3.org/2000/svg">
<path d="M18 0.93042C16.8739 0.947935 15.7724 1.26227 14.8068 1.84169C13.8411 2.42111 13.0453 3.24509 12.5 4.23042C11.9546 3.24509 11.1589 2.42111 10.1932 1.84169C9.22753 1.26227 8.12604 0.947935 6.99999 0.93042C5.20493 1.00841 3.51369 1.79367 2.29577 3.11465C1.07785 4.43563 0.432238 6.18495 0.499989 7.98042C0.499989 12.5274 5.28599 17.4934 9.29999 20.8604C10.1962 21.6136 11.3293 22.0264 12.5 22.0264C13.6706 22.0264 14.8038 21.6136 15.7 20.8604C19.714 17.4934 24.5 12.5274 24.5 7.98042C24.5677 6.18495 23.9221 4.43563 22.7042 3.11465C21.4863 1.79367 19.795 1.00841 18 0.93042Z" fill="#181818"/>
</svg>
