<svg width="25" height="23" viewBox="0 0 25 23" fill="none" xmlns="http://www.w3.org/2000/svg">
<path d="M18.25 0.93042C17.1239 0.947935 16.0224 1.26227 15.0568 1.84169C14.0911 2.42111 13.2953 3.24509 12.75 4.23042C12.2046 3.24509 11.4089 2.42111 10.4432 1.84169C9.47753 1.26227 8.37604 0.947935 7.24999 0.93042C5.45493 1.00841 3.76369 1.79367 2.54577 3.11465C1.32785 4.43563 0.682238 6.18495 0.749989 7.98042C0.749989 12.5274 5.53599 17.4934 9.54999 20.8604C10.4462 21.6136 11.5793 22.0264 12.75 22.0264C13.9206 22.0264 15.0538 21.6136 15.95 20.8604C19.964 17.4934 24.75 12.5274 24.75 7.98042C24.8177 6.18495 24.1721 4.43563 22.9542 3.11465C21.7363 1.79367 20.045 1.00841 18.25 0.93042ZM14.665 19.3304C14.129 19.7818 13.4507 20.0293 12.75 20.0293C12.0492 20.0293 11.371 19.7818 10.835 19.3304C5.69699 15.0194 2.74999 10.8834 2.74999 7.98042C2.68163 6.71514 3.11635 5.47415 3.95935 4.52812C4.80235 3.58209 5.98522 3.00777 7.24999 2.93042C8.51476 3.00777 9.69763 3.58209 10.5406 4.52812C11.3836 5.47415 11.8183 6.71514 11.75 7.98042C11.75 8.24564 11.8553 8.49999 12.0429 8.68753C12.2304 8.87506 12.4848 8.98042 12.75 8.98042C13.0152 8.98042 13.2696 8.87506 13.4571 8.68753C13.6446 8.49999 13.75 8.24564 13.75 7.98042C13.6816 6.71514 14.1164 5.47415 14.9594 4.52812C15.8023 3.58209 16.9852 3.00777 18.25 2.93042C19.5148 3.00777 20.6976 3.58209 21.5406 4.52812C22.3836 5.47415 22.8183 6.71514 22.75 7.98042C22.75 10.8834 19.803 15.0194 14.665 19.3264V19.3304Z" fill="#181818"/>
</svg>
